<svg xmlns="http://www.w3.org/2000/svg" viewBox="0 0 2357.000000 230.000000" preserveAspectRatio="xMidYMid meet" role="img" aria-label="ISAAC — Integrated Scientific Agentic AI for Catalysis"><g transform="translate(0.000000,230.000000) scale(0.100000,-0.100000)"
fill="#ffffff" stroke="none">
<path d="M1505 2176 c-172 -33 -292 -94 -400 -201 -119 -118 -174 -254 -175
-427 0 -156 42 -260 145 -356 82 -78 186 -129 395 -197 96 -32 205 -72 241
-90 153 -77 192 -198 97 -301 -69 -75 -214 -111 -341 -84 -82 17 -190 74 -246
130 l-48 48 -149 -164 c-82 -90 -150 -170 -152 -177 -3 -18 132 -115 223 -158
143 -69 213 -82 430 -83 168 -1 200 2 273 22 228 62 401 211 465 400 28 84 39
209 27 310 -14 115 -54 197 -134 277 -82 82 -182 131 -391 195 -272 83 -350
129 -375 221 -15 55 -3 106 37 150 64 71 200 111 311 91 87 -16 170 -51 215
-90 l39 -36 62 65 c33 35 101 109 151 163 l90 98 -40 34 c-63 54 -187 113
-293 140 -121 32 -346 41 -457 20z"/>
<path d="M7530 2175 c-451 -71 -769 -380 -845 -819 -29 -172 -14 -413 36 -566
11 -36 42 -105 67 -154 173 -336 512 -526 939 -526 231 0 422 61 579 183 62
49 144 138 144 158 0 6 -306 237 -347 262 -7 5 -31 -13 -60 -44 -93 -99 -192
-146 -328 -156 -263 -18 -496 167 -572 457 -23 88 -23 272 1 360 57 212 204
375 391 432 51 16 95 22 165 22 138 -1 240 -36 325 -115 23 -21 45 -39 49 -39
15 0 326 262 326 275 0 21 -115 121 -188 163 -184 107 -431 146 -682 107z"/>
<path d="M11763 2146 c-190 -62 -305 -254 -273 -459 28 -184 151 -308 335
-337 99 -16 230 1 328 42 l47 20 0 194 0 194 -140 0 -140 0 0 -50 0 -50 85 0
85 0 0 -109 0 -109 -47 -16 c-140 -44 -264 -23 -351 62 -150 146 -111 418 73
507 50 24 150 31 212 16 25 -7 65 -25 88 -41 l42 -29 39 40 39 40 -25 21 c-14
12 -50 33 -80 47 -47 22 -71 26 -165 28 -73 2 -124 -2 -152 -11z"/>
<path d="M16307 2146 c-97 -35 -151 -112 -151 -212 1 -118 59 -181 219 -234
145 -48 187 -96 150 -174 -45 -93 -187 -109 -274 -31 l-36 33 -45 -40 -45 -40
39 -34 c53 -46 125 -68 216 -68 166 1 270 96 270 244 -1 104 -64 170 -205 211
-132 40 -175 73 -175 137 0 81 61 127 160 120 44 -3 67 -11 95 -32 l37 -28 31
28 c18 16 36 32 41 36 18 14 -47 68 -98 83 -61 18 -178 19 -229 1z"/>
<path d="M17023 2145 c-103 -32 -194 -113 -241 -213 -25 -52 -27 -68 -27 -177
0 -109 2 -125 27 -178 96 -205 338 -291 542 -191 30 14 69 42 87 60 32 33 33
35 14 48 -11 8 -31 23 -45 34 l-25 20 -42 -38 c-130 -120 -349 -69 -427 99
-32 69 -30 217 4 286 49 100 131 156 237 163 73 5 123 -10 169 -50 37 -32 52
-32 97 5 18 16 26 29 21 40 -9 24 -91 75 -148 92 -61 18 -186 18 -243 0z"/>
<path d="M21443 2151 c-112 -29 -203 -106 -256 -219 -30 -63 -32 -74 -32 -177
0 -103 2 -114 32 -177 60 -126 162 -205 296 -228 80 -14 162 -3 240 33 55 25
121 80 115 96 -1 6 -21 23 -42 39 l-39 29 -39 -38 c-48 -46 -95 -63 -173 -63
-113 1 -210 66 -258 173 -27 60 -29 175 -4 248 22 62 85 136 141 165 63 32
159 36 223 8 28 -12 59 -30 69 -41 23 -25 29 -24 76 12 l39 32 -28 29 c-51 53
-126 81 -233 84 -52 2 -109 -1 -127 -5z"/>
<path d="M160 1150 l0 -990 220 0 220 0 0 990 0 990 -220 0 -220 0 0 -990z"/>
<path d="M3245 2108 c-7 -18 -196 -456 -420 -973 -224 -517 -409 -948 -412
-958 -5 -16 11 -17 235 -17 l241 0 82 210 82 210 383 0 382 0 26 -63 c14 -34
52 -127 85 -207 l58 -145 248 -3 c233 -2 247 -1 241 15 -4 10 -197 456 -429
990 l-422 973 -183 0 -183 0 -14 -32z m308 -863 l115 -290 -119 -3 c-65 -1
-172 -1 -237 0 l-119 3 116 297 c64 163 119 294 123 290 4 -4 58 -137 121
-297z"/>
<path d="M5441 2118 c-5 -13 -196 -456 -425 -986 -229 -529 -416 -965 -416
-967 0 -3 109 -4 241 -3 l242 3 81 208 81 207 384 -2 384 -3 58 -145 c33 -80
71 -173 85 -207 l26 -63 244 0 c134 0 244 3 244 8 0 4 -192 449 -427 990
l-427 982 -183 0 c-181 0 -184 0 -192 -22z m419 -1165 c0 -2 -107 -3 -239 -3
l-238 0 114 291 c62 161 116 296 120 302 4 7 243 -571 243 -590z"/>
<path d="M9100 1750 l0 -390 55 0 55 0 0 390 0 390 -55 0 -55 0 0 -390z"/>
<path d="M9400 1750 l0 -390 50 0 50 0 2 321 3 320 215 -318 215 -318 68 -3
67 -3 0 391 0 390 -50 0 -50 0 -2 -317 -3 -318 -213 318 -212 317 -70 0 -70 0
0 -390z"/>
<path d="M10180 2090 l0 -50 125 0 125 0 0 -340 0 -340 50 0 50 0 0 340 0 340
125 0 125 0 0 50 0 50 -300 0 -300 0 0 -50z"/>
<path d="M10890 1750 l0 -390 260 0 260 0 0 50 0 50 -207 2 -208 3 -3 123 -3
122 186 0 185 0 0 50 0 50 -182 2 -183 3 -3 113 -3 112 201 0 200 0 0 50 0 50
-250 0 -250 0 0 -390z"/>
<path d="M12380 1750 l0 -390 50 0 50 0 2 173 3 172 56 3 56 3 99 -172 c54
-94 103 -173 110 -176 6 -2 37 -3 68 -1 l57 3 -105 170 c-59 93 -106 173 -106
177 0 3 13 9 29 13 48 10 107 59 131 110 19 39 22 58 17 111 -6 86 -40 137
-110 170 -49 22 -63 24 -229 24 l-178 0 0 -390z m321 289 c60 -19 84 -51 84
-114 0 -95 -50 -125 -212 -125 l-93 0 0 118 c0 65 3 122 7 125 11 11 173 8
214 -4z"/>
<path d="M13321 2118 c-5 -13 -80 -183 -166 -378 -86 -195 -159 -361 -162
-368 -4 -10 9 -12 58 -10 l64 3 35 85 c19 47 39 91 43 98 6 9 55 12 186 12
l178 0 41 -97 40 -98 61 -3 c34 -2 61 1 61 5 0 5 -73 179 -163 388 l-163 380
-52 3 c-47 3 -53 1 -61 -20z m135 -308 l62 -155 -74 -3 c-41 -2 -106 -2 -143
0 l-69 3 71 173 c57 137 73 169 81 155 5 -10 38 -88 72 -173z"/>
<path d="M13690 2090 l0 -50 125 0 125 0 0 -340 0 -340 55 0 55 0 0 340 0 340
125 0 125 0 0 50 0 50 -305 0 -305 0 0 -50z"/>
<path d="M14400 1750 l0 -390 260 0 260 0 0 50 0 50 -205 0 -205 0 0 125 0
125 180 0 180 0 0 50 0 50 -180 0 -180 0 0 115 0 115 195 0 195 0 0 50 0 50
-250 0 -250 0 0 -390z"/>
<path d="M15050 1750 l0 -390 138 0 c75 0 166 5 201 11 137 22 238 95 297 214
33 67 37 83 37 157 2 191 -88 326 -252 378 -53 17 -91 20 -242 20 l-179 0 0
-390z m419 255 c99 -55 149 -155 139 -281 -8 -110 -72 -195 -176 -235 -45 -17
-80 -22 -167 -23 l-110 -1 -3 288 -2 289 132 -4 c126 -3 136 -5 187 -33z"/>
<path d="M17550 1750 l0 -390 55 0 55 0 0 390 0 390 -55 0 -55 0 0 -390z"/>
<path d="M17850 1750 l0 -390 260 0 260 0 0 50 0 50 -207 2 -208 3 -3 123 -3
122 186 0 185 0 0 50 0 50 -182 2 -183 3 -3 113 -3 112 201 0 200 0 0 50 0 50
-250 0 -250 0 0 -390z"/>
<path d="M18500 1750 l0 -390 55 0 55 0 2 317 3 317 214 -317 215 -317 68 0
68 0 0 390 0 390 -55 0 -55 0 0 -317 0 -317 -212 317 -213 316 -72 1 -73 0 0
-390z"/>
<path d="M19280 2090 l0 -50 125 0 125 0 0 -340 0 -340 55 0 55 0 0 340 0 340
125 0 125 0 0 50 0 50 -305 0 -305 0 0 -50z"/>
<path d="M19990 1750 l0 -390 55 0 55 0 0 390 0 390 -55 0 -55 0 0 -390z"/>
<path d="M20290 1750 l0 -390 55 0 55 0 0 170 0 170 175 0 175 0 0 50 0 50
-175 0 -175 0 0 120 0 120 190 0 190 0 0 50 0 50 -245 0 -245 0 0 -390z"/>
<path d="M20900 1750 l0 -390 50 0 50 0 0 390 0 390 -50 0 -50 0 0 -390z"/>
<path d="M10080 945 c-114 -33 -198 -103 -252 -213 -31 -63 -33 -72 -33 -182
0 -108 2 -119 32 -182 70 -148 203 -228 378 -228 82 0 186 21 250 49 l45 20 0
195 0 196 -140 0 -140 0 0 -50 0 -50 85 0 85 0 0 -111 0 -110 -37 -16 c-21 -8
-74 -18 -118 -20 -66 -4 -90 -1 -139 17 -70 27 -131 84 -166 155 -33 68 -35
197 -3 266 76 168 280 228 438 128 l48 -30 33 32 c19 18 34 39 34 46 0 17 -63
58 -120 78 -65 24 -212 29 -280 10z"/>
<path d="M13375 947 c-193 -51 -303 -212 -293 -428 3 -72 9 -97 35 -150 41
-82 110 -152 193 -192 60 -30 71 -32 170 -32 93 1 111 4 160 27 57 28 130 83
130 98 0 5 -18 23 -40 40 l-40 32 -39 -35 c-84 -76 -206 -88 -312 -31 -119 65
-176 220 -133 364 41 138 137 214 269 214 75 0 117 -15 167 -61 l26 -25 46 35
46 35 -45 40 c-26 22 -67 48 -93 57 -63 22 -185 28 -247 12z"/>
<path d="M16492 949 c-23 -4 -69 -22 -102 -40 -241 -129 -280 -480 -73 -669
116 -106 306 -130 460 -58 65 30 143 110 179 183 27 57 29 67 29 185 l0 125
-39 73 c-87 163 -259 240 -454 201z m187 -105 c73 -21 151 -98 180 -177 43
-119 21 -243 -61 -333 -65 -70 -134 -98 -229 -91 -162 11 -269 133 -269 307 0
140 72 250 192 291 66 23 119 24 187 3z"/>
<path d="M18390 950 c-144 -31 -257 -139 -294 -285 -54 -205 37 -407 222 -493
50 -24 69 -27 162 -27 92 0 112 3 160 26 60 28 130 84 130 103 0 6 -18 24 -40
39 l-40 28 -45 -39 c-73 -64 -168 -79 -268 -42 -190 71 -245 339 -103 507 33
39 115 81 177 89 61 8 144 -17 187 -56 l33 -30 44 31 c51 37 49 49 -12 92 -78
54 -211 78 -313 57z"/>
<path d="M22162 942 c-62 -23 -127 -81 -143 -130 -6 -19 -9 -65 -7 -102 3 -59
8 -75 34 -107 38 -47 86 -75 186 -108 42 -15 92 -36 110 -48 64 -44 58 -126
-13 -179 -57 -43 -172 -31 -230 23 -31 29 -31 29 -58 10 -14 -10 -34 -28 -43
-38 -17 -19 -17 -21 10 -46 53 -51 117 -72 222 -72 88 0 99 2 150 31 75 42
113 103 118 190 8 126 -46 183 -227 239 -108 34 -151 72 -151 135 0 112 176
162 263 74 l26 -26 43 40 43 40 -20 23 c-54 60 -214 86 -313 51z"/>
<path d="M23066 944 c-63 -20 -142 -97 -152 -148 -3 -20 -4 -63 -2 -95 6 -89
57 -147 163 -186 22 -8 67 -24 100 -36 33 -12 73 -35 89 -51 25 -25 28 -34 23
-69 -16 -120 -190 -160 -289 -67 l-31 28 -44 -36 -44 -36 26 -29 c50 -51 118
-74 225 -74 88 0 99 2 150 31 77 43 113 103 118 195 7 122 -41 174 -215 230
-73 24 -107 41 -132 66 -31 31 -33 37 -28 80 4 36 12 54 35 74 58 52 167 49
227 -7 l28 -26 40 41 41 40 -20 22 c-51 58 -209 85 -308 53z"/>
<path d="M9195 603 c-82 -186 -159 -362 -172 -391 l-23 -52 63 0 64 0 37 95
38 95 186 -2 186 -3 36 -90 36 -90 63 -3 c56 -3 62 -1 57 15 -3 10 -77 185
-164 388 l-159 370 -50 3 -49 3 -149 -338z m269 9 c36 -89 66 -164 66 -167 0
-7 -275 -6 -282 0 -3 3 26 82 65 176 39 93 74 166 78 162 4 -4 37 -81 73 -171z"/>
<path d="M10680 550 l0 -390 260 0 260 0 0 50 0 50 -205 0 -205 0 0 125 0 125
185 0 185 0 0 50 0 50 -185 0 -185 0 0 115 0 115 195 0 195 0 0 50 0 50 -250
0 -250 0 0 -390z"/>
<path d="M11340 550 l0 -390 50 0 50 0 2 318 3 317 215 -317 214 -318 68 0 68
0 0 390 0 390 -50 0 -50 0 0 -315 c0 -173 -3 -315 -7 -315 -5 1 -102 142 -218
315 l-210 315 -67 0 -68 0 0 -390z"/>
<path d="M12120 890 l0 -49 123 -3 122 -3 3 -338 2 -337 50 0 50 0 0 340 0
340 125 0 125 0 0 50 0 50 -300 0 -300 0 0 -50z"/>
<path d="M12830 550 l0 -390 50 0 50 0 0 390 0 390 -50 0 -50 0 0 -390z"/>
<path d="M14451 918 c-5 -13 -80 -183 -166 -378 -86 -195 -159 -361 -162 -367
-4 -10 12 -13 58 -13 l64 0 36 93 36 92 188 0 188 0 36 -92 36 -93 64 0 c46 0
62 3 58 13 -3 6 -78 182 -167 390 l-162 377 -49 0 c-42 0 -51 -3 -58 -22z
m129 -303 c37 -90 65 -167 62 -170 -7 -6 -282 -7 -282 0 0 3 27 71 61 152 34
82 65 159 70 172 5 13 12 21 16 17 3 -3 37 -80 73 -171z"/>
<path d="M14990 550 l0 -390 55 0 55 0 0 390 0 390 -55 0 -55 0 0 -390z"/>
<path d="M15610 550 l0 -390 55 0 55 0 0 170 0 170 180 0 180 0 0 50 0 50
-180 0 -180 0 0 120 0 120 190 0 190 0 0 50 0 50 -245 0 -245 0 0 -390z"/>
<path d="M17140 551 l0 -391 55 0 55 0 0 170 0 170 58 0 57 -1 94 -165 c52
-91 100 -168 106 -171 7 -2 38 -3 69 -1 l56 3 -105 170 c-58 94 -105 172 -105
175 0 3 20 11 44 18 53 14 122 87 132 139 20 109 -19 203 -103 244 -44 22 -63
24 -230 27 l-183 4 0 -391z m349 274 c82 -42 79 -176 -4 -211 -22 -9 -71 -14
-135 -14 l-100 0 0 127 0 126 104 -6 c65 -4 116 -12 135 -22z"/>
<path d="M19157 933 c-9 -15 -337 -763 -337 -768 0 -3 28 -5 62 -3 l62 3 36
90 36 90 186 3 186 2 38 -95 37 -95 63 0 63 0 -43 103 c-24 56 -98 231 -166
390 l-123 287 -48 0 c-26 0 -50 -3 -52 -7z m122 -319 c34 -83 61 -156 61 -163
0 -8 -43 -11 -140 -11 -77 0 -140 4 -140 8 0 7 61 158 124 307 21 48 15 57 95
-141z"/>
<path d="M19510 890 l0 -49 128 -3 127 -3 3 -338 2 -337 50 0 50 0 0 340 0
340 125 0 125 0 0 50 0 50 -305 0 -305 0 0 -50z"/>
<path d="M20375 908 c-7 -18 -83 -192 -169 -386 -86 -195 -156 -356 -156 -358
0 -3 28 -4 62 -2 l62 3 36 90 36 90 186 3 186 2 38 -95 37 -95 64 0 c35 0 62
3 60 8 -2 4 -77 179 -167 390 l-163 382 -49 0 c-46 0 -50 -2 -63 -32z m195
-454 c0 -11 -29 -14 -140 -14 -77 0 -140 2 -140 5 0 3 32 85 72 181 l71 175
69 -167 c37 -92 68 -173 68 -180z"/>
<path d="M20920 550 l0 -390 230 0 230 0 0 50 0 50 -180 0 -180 0 0 340 0 340
-50 0 -50 0 0 -390z"/>
<path d="M21280 936 c0 -3 65 -104 145 -225 l145 -220 0 -166 0 -165 55 0 55
0 0 167 0 167 139 210 c76 116 141 217 145 224 5 9 -9 12 -57 12 l-65 0 -103
-162 c-57 -89 -107 -166 -110 -170 -3 -5 -53 68 -110 161 l-104 170 -67 1
c-38 0 -68 -2 -68 -4z"/>
<path d="M22650 550 l0 -390 50 0 50 0 0 390 0 390 -50 0 -50 0 0 -390z"/>
</g></svg>